<?xml version="1.0" standalone="no"?>
<!DOCTYPE svg PUBLIC "-//W3C//DTD SVG 20010904//EN"
 "http://www.w3.org/TR/2001/REC-SVG-20010904/DTD/svg10.dtd">
<svg version="1.0" xmlns="http://www.w3.org/2000/svg"
 width="184.000000pt" height="201.000000pt" viewBox="0 0 184.000000 201.000000"
 preserveAspectRatio="xMidYMid meet">
<metadata>
Created by potrace 1.16, written by Peter Selinger 2001-2019
</metadata>
<g transform="translate(0.000000,201.000000) scale(0.100000,-0.100000)"
fill="#000000" stroke="none">
<path d="M143 1874 c65 -127 188 -258 322 -347 144 -95 234 -136 505 -230 189
-66 268 -102 363 -163 198 -127 343 -314 393 -504 9 -36 19 -72 21 -80 10 -28
34 85 39 185 14 252 -93 451 -344 640 -222 166 -363 217 -818 295 -277 48
-355 79 -445 178 -39 43 -48 49 -36 26z"/>
<path d="M572 1111 c-126 -157 -117 -362 24 -504 238 -242 669 -108 719 224
l7 45 -61 43 c-97 68 -214 116 -362 150 -74 16 -161 39 -194 51 -96 34 -98 34
-133 -9z m205 -111 c42 -16 53 -36 41 -71 -29 -84 43 -179 137 -179 40 0 66
11 107 46 37 30 72 22 63 -15 -20 -84 -124 -161 -219 -161 -189 0 -301 209
-194 363 22 30 25 31 65 17z"/>
<path d="M282 133 c3 -93 5 -108 21 -111 15 -3 17 6 17 74 l0 77 60 -77 c33
-42 67 -76 75 -76 12 0 15 20 15 110 0 103 -1 110 -20 110 -17 0 -19 -8 -22
-72 l-3 -71 -54 71 c-33 43 -62 72 -73 72 -17 0 -18 -9 -16 -107z"/>
<path d="M558 198 c-9 -24 -27 -73 -41 -111 -25 -65 -26 -67 -6 -67 13 0 24
10 30 30 10 27 15 30 55 30 38 0 46 -3 54 -25 10 -25 36 -43 47 -32 3 4 -14
54 -37 112 -35 88 -46 105 -64 105 -16 0 -26 -10 -38 -42z"/>
<path d="M730 130 c0 -90 3 -110 15 -110 11 0 15 17 17 77 l3 76 59 -76 c32
-43 64 -77 72 -77 11 0 14 23 14 110 0 91 -3 110 -15 110 -12 0 -15 -14 -15
-70 0 -38 -3 -70 -7 -70 -5 1 -32 32 -62 70 -30 39 -60 70 -67 70 -11 0 -14
-24 -14 -110z"/>
<path d="M1308 234 c-12 -11 -10 -202 2 -209 6 -4 10 13 10 44 0 43 3 51 19
51 11 0 35 -21 57 -50 21 -28 42 -50 47 -50 4 0 -2 14 -15 31 -52 70 -51 65
-23 83 29 19 34 66 10 86 -18 15 -97 25 -107 14z"/>
</g>
</svg>
